<svg width="113" height="106" viewBox="0 0 113 106" fill="none" xmlns="http://www.w3.org/2000/svg">
<g id="select plan svg">
<path id="Vector" d="M49.5 99C76.8381 99 99 76.8381 99 49.5C99 22.1619 76.8381 0 49.5 0C22.1619 0 0 22.1619 0 49.5C0 76.8381 22.1619 99 49.5 99Z" fill="#FF6584"/>
<g id="arrow 1">
<g id="Group">
<path id="Vector_2" d="M36.5425 53.0759L33.2288 49.8864L23.8551 58.9085L27.1689 62.098L36.5425 53.0759Z" fill="#FABE2C"/>
<path id="Vector_3" d="M64.6616 26.0056L61.3479 22.8161L51.9743 31.8382L55.288 35.0276L64.6616 26.0056Z" fill="#FFE14D"/>
<path id="Vector_4" d="M46.5938 22H41.9062V31.1738H46.5938V22Z" fill="#FABE2C"/>
<path id="Vector_5" d="M32.5312 40.1973H23V44.709H32.5312V40.1973Z" fill="#FABE2C"/>
<g id="Group_2">
<path id="Vector_6" d="M25.5002 24.4062L27.1572 22.8113L36.5322 31.8348L34.8752 33.4297L33.2182 35.0246L23.8432 26.0011L25.5002 24.4062Z" fill="#FFE14D"/>
<path id="Vector_7" d="M34.8828 33.436L25.5092 24.4139L23.8524 26.0086L33.226 35.0307L34.8828 33.436Z" fill="#FABE2C"/>
<path id="Vector_8" d="M99.0947 63.6591L79.4909 69.9926L103 92.6201L99.6858 95.81L96.3716 99L72.8625 76.3725L66.2822 95.2411L42.3778 40.6511L99.0947 63.6591Z" fill="#404A80"/>
<path id="Vector_9" d="M72.8623 76.3725L66.282 95.2411L42.3776 40.6511L99.6855 95.81L96.3713 99L72.8623 76.3725Z" fill="#283366"/>
</g>
</g>
</g>
</g>
</svg>
