<svg width="104" height="106" viewBox="0 0 104 106" fill="none" xmlns="http://www.w3.org/2000/svg">
<g id="create acc svg">
<path id="Vector" d="M49.5 99C76.8381 99 99 76.8381 99 49.5C99 22.1619 76.8381 0 49.5 0C22.1619 0 0 22.1619 0 49.5C0 76.8381 22.1619 99 49.5 99Z" fill="#FF6584"/>
<g id="login 1">
<g clip-path="url(#clip0)">
<g id="Group">
<g id="Group_2">
<path id="Vector_2" d="M95.5749 30.1292H41.4253C39.9048 30.1292 38.6714 31.4653 38.6714 33.1144V36.6412L43.4037 45.2467H93.1928L98.3288 36.6412V33.1144C98.3288 31.4653 97.0955 30.1292 95.5749 30.1292Z" fill="#5F99D7"/>
<path id="Vector_3" d="M49.8862 33.1144C49.8862 31.4653 51.1195 30.1292 52.6401 30.1292H41.4253C39.9048 30.1292 38.6714 31.4653 38.6714 33.1144V36.6412L43.4037 45.2467H49.8862V33.1144Z" fill="#3C87D0"/>
<g id="XMLID 250">
<g id="Group_3">
<g id="Group_4">
<path id="Vector_4" d="M98.3288 36.6413V103.127C98.3288 104.091 97.6088 104.872 96.7206 104.872H40.2796C39.3914 104.872 38.6714 104.091 38.6714 103.127V36.6413H98.3288Z" fill="#DFF6FD"/>
</g>
</g>
</g>
<path id="Vector_5" d="M51.4944 104.872C50.6062 104.872 49.8862 104.091 49.8862 103.127V36.6413H38.6714V103.127C38.6714 104.091 39.3914 104.872 40.2796 104.872H96.7206H96.7207H51.4944Z" fill="#C8EFFE"/>
<g id="XMLID 251">
<g id="Group_5">
<path id="Vector_6" d="M68.4503 82.8694C78.1768 82.8694 86.0617 74.3181 86.0617 63.7697C86.0617 53.2212 78.1768 44.6699 68.4503 44.6699C58.7238 44.6699 50.8389 53.2212 50.8389 63.7697C50.8389 74.3181 58.7238 82.8694 68.4503 82.8694Z" fill="#FEE97D"/>
</g>
</g>
<path id="Vector_7" d="M58.6054 63.7697C58.6054 54.668 64.4753 47.0548 72.3333 45.1368C71.0838 44.8318 69.7845 44.6699 68.4503 44.6699C58.7234 44.6699 50.8389 53.2207 50.8389 63.7697C50.8389 74.3171 58.7234 82.8694 68.4503 82.8694C69.7845 82.8694 71.084 82.7075 72.3333 82.4023C64.4753 80.4841 58.6054 72.8699 58.6054 63.7697Z" fill="#FEE45A"/>
<path id="Vector_8" d="M91.4434 82.3069H88.7744C88.0069 82.3069 87.3848 81.6323 87.3848 80.7999V77.9053C87.3848 77.073 88.0069 76.3983 88.7744 76.3983H91.4434C92.2109 76.3983 92.833 77.073 92.833 77.9053V80.7999C92.833 81.6321 92.2108 82.3069 91.4434 82.3069Z" fill="#C8EFFE"/>
<g id="Group_6">
<g id="Group_7">
<path id="Vector_9" d="M78.6805 75.2033V79.317C75.7962 81.5528 72.2653 82.8694 68.45 82.8694C64.6818 82.8694 61.1912 81.5859 58.3276 79.4012V75.2033C58.3276 74.2524 58.7952 73.3722 59.5541 72.8967L65.9055 68.914L67.2152 68.252H69.4045L71.1027 68.914L77.4541 72.8967C78.213 73.3722 78.6805 74.2524 78.6805 75.2033Z" fill="#F37C7C"/>
</g>
<path id="Vector_10" d="M71.1027 68.914L69.6133 68.3334L70.2099 69.6711L67.3768 71.1569V68.252H67.2152L65.9055 68.914L59.5541 72.8967C58.7952 73.3722 58.3276 74.2524 58.3276 75.2033V79.4012C59.5369 80.3239 60.8591 81.0834 62.2657 81.6558V78.0337C62.2657 77.0828 62.7333 76.2025 63.4922 75.7271L65.5028 74.4664C66.2657 73.9879 67.1479 73.8079 68.0257 73.8929C68.1604 73.906 68.2968 73.9127 68.4347 73.9127C70.6143 73.9127 72.4443 72.263 72.9218 70.0548L71.1027 68.914Z" fill="#EE6161"/>
<path id="Vector_11" d="M70.9631 68.9132C70.9631 70.4278 69.8309 71.6556 68.4344 71.6556C67.0379 71.6556 65.9058 70.4278 65.9058 68.9132V61.5269H70.9632V68.9132H70.9631Z" fill="#FFE5C2"/>
<path id="Vector_12" d="M71.9488 50.4996H65.2551L63.1789 49.7598C62.8768 49.6522 62.5659 49.8963 62.5659 50.2411V56.4844L64.6691 59.9392H72.2339C73.2365 58.2671 74.3327 56.4844 74.3327 56.4844V53.085C74.3327 51.6571 73.2654 50.4996 71.9488 50.4996Z" fill="#A79BA7"/>
<path id="Vector_13" d="M65.6245 58.8878L65.5231 58.8992V54.0126C65.6245 52.9877 66.5381 52.2703 67.4259 52.5867L68.3137 52.9031L74.3259 52.9028C74.2395 51.5602 73.2087 50.4998 71.9488 50.4998H65.2551L63.1789 49.7599C62.8767 49.6522 62.5659 49.8964 62.5659 50.2413V56.4846L64.6691 59.9393H66.2647L65.6245 58.8878Z" fill="#918291"/>
<path id="Vector_14" d="M68.4497 67.979C69.3217 67.979 70.1643 67.8022 70.9637 67.4586V66.0334H65.9062V68.8478C65.9062 70.1938 66.7774 71.3858 68.0004 71.6151C68.4882 71.7066 68.9522 71.6392 69.365 71.4618C68.4292 71.0596 67.7665 70.0713 67.7665 68.9134V68.6991C67.7665 68.2962 68.0713 67.9787 68.4428 67.9792C68.4452 67.979 68.4475 67.979 68.4497 67.979Z" fill="#FED2A4"/>
<path id="Vector_15" d="M62.5659 56.4843V60.5451C62.5659 61.7073 62.8539 62.796 63.3545 63.7346L63.9738 62.6654L65.9058 65.8794L69.2931 66.4729H70.2961L71.0818 66.2511C73.009 65.2033 74.3327 63.0425 74.3327 60.5451V56.4843H62.5659Z" fill="#FFE5C2"/>
<path id="Vector_16" d="M65.5263 59.881V56.4844H62.5659V60.5453C62.5659 64.0691 65.2 66.9258 68.4493 66.9258C69.3959 66.9258 70.2895 66.6819 71.0817 66.2511C67.985 66.0665 65.5263 63.2853 65.5263 59.881Z" fill="#FED2A4"/>
</g>
</g>
<g id="Group_8">
<path id="Vector_17" d="M55.3214 50.9897C54.8722 50.6012 54.2174 50.6811 53.8591 51.1684C51.2022 54.7825 49.7979 59.1398 49.7979 63.769C49.7979 74.9228 58.1652 83.9971 68.4498 83.9971C78.7345 83.9971 87.1018 74.9227 87.1018 63.769C87.1018 52.6154 78.7345 43.541 68.4498 43.541C64.3651 43.541 60.486 44.9474 57.2319 47.608C56.7731 47.9831 56.6815 48.6907 57.0274 49.1883C57.3735 49.6862 58.0257 49.7855 58.4847 49.4101C61.3749 47.0471 64.8207 45.7979 68.4498 45.7979C77.5871 45.7979 85.0207 53.8597 85.0207 63.769C85.0207 68.9614 82.979 73.6454 79.7216 76.9291V75.2033C79.7216 73.8532 79.0522 72.5949 77.9749 71.9195L77.5712 71.6661C77.0737 71.3542 76.4371 71.5385 76.1494 72.0777C75.8616 72.6173 76.0316 73.3076 76.529 73.6197L76.933 73.8732C77.3694 74.1468 77.6405 74.6565 77.6405 75.2033V78.7154C76.84 79.2963 75.9902 79.8031 75.0998 80.2279V79.0515C75.0998 78.4282 74.6341 77.9231 74.0593 77.9231C73.4845 77.9231 73.0188 78.4282 73.0188 79.0515V81.0452C71.5669 81.4975 70.0341 81.7403 68.4498 81.7403C66.8547 81.7403 65.312 81.494 63.8512 81.0357V79.0515C63.8512 78.4282 63.3853 77.9231 62.8107 77.9231C62.236 77.9231 61.7701 78.4282 61.7701 79.0515V80.2139C60.9308 79.8112 60.1279 79.3353 59.3682 78.7935V75.2035C59.3682 74.6567 59.6392 74.1471 60.0757 73.8732L65.2394 70.6348C65.8248 71.9074 67.0369 72.784 68.4348 72.784C69.8575 72.784 71.0881 71.8763 71.6611 70.5671L72.6093 71.1619C72.7735 71.2649 72.9526 71.3137 73.1293 71.3137C73.4887 71.3137 73.8381 71.1116 74.031 70.7501C74.3187 70.2105 74.1488 69.5202 73.6513 69.2083L72.0042 68.1752V66.9862C74.021 65.6724 75.3737 63.2772 75.3737 60.5451V53.0848C75.3737 51.0371 73.8374 49.371 71.9491 49.371H65.4221L63.5042 48.6876C63.0465 48.5246 62.5398 48.6099 62.1493 48.9164C61.7589 49.2229 61.5258 49.7179 61.5258 50.2408V60.5449C61.5258 63.2638 62.8651 65.6495 64.8657 66.9676V68.262L59.0339 71.9193C57.9565 72.595 57.2871 73.8534 57.2871 75.2033V77.0393C53.9658 73.7506 51.8788 69.0193 51.8788 63.769C51.8788 59.6562 53.1262 55.7855 55.4863 52.5754C55.8445 52.0882 55.7707 51.3781 55.3214 50.9897ZM64.9309 51.5716C65.0356 51.609 65.1452 51.6281 65.2557 51.6281H71.9492C72.6901 51.6281 73.2928 52.2817 73.2928 53.085V55.3559H63.607V51.0999L64.9309 51.5716ZM63.6069 57.6127H73.2926V60.5451C73.2926 63.441 71.1201 65.7971 68.4497 65.7971C65.7792 65.7971 63.6069 63.441 63.6069 60.5451V57.6127ZM68.4497 68.0542C68.9554 68.0542 69.4479 67.9936 69.9231 67.8813V68.9132C69.9231 69.8032 69.2555 70.5272 68.435 70.5272C67.6145 70.5272 66.9467 69.8032 66.9467 68.9132V67.874C67.4311 67.9906 67.9336 68.0542 68.4497 68.0542Z" fill="black"/>
<path id="Vector_18" d="M91.4434 75.2697H88.7744C87.4344 75.2697 86.3442 76.4518 86.3442 77.9053V80.7999C86.3442 82.2532 87.4343 83.4356 88.7744 83.4356H91.4434C92.7835 83.4356 93.8737 82.2534 93.8737 80.7999V77.9053C93.8737 76.4518 92.7835 75.2697 91.4434 75.2697ZM91.7926 80.7999C91.7926 81.0088 91.636 81.1786 91.4434 81.1786H88.7744C88.5819 81.1786 88.4253 81.0088 88.4253 80.7999V77.9053C88.4253 77.6965 88.5819 77.5266 88.7744 77.5266H91.4434C91.636 77.5266 91.7926 77.6965 91.7926 77.9053V80.7999Z" fill="black"/>
<path id="Vector_19" d="M48.8456 90.4736C49.4203 90.4736 49.8862 89.9685 49.8862 89.3451C49.8862 88.7218 49.4203 88.2167 48.8456 88.2167H46.2817C45.7071 88.2167 45.2412 88.7218 45.2412 89.3451C45.2412 89.9685 45.7071 90.4736 46.2817 90.4736H48.8456Z" fill="black"/>
<path id="Vector_20" d="M90.8574 88.2167H88.2935C87.7187 88.2167 87.2529 88.7218 87.2529 89.3451C87.2529 89.9685 87.7187 90.4736 88.2935 90.4736H90.8574C91.4321 90.4736 91.8979 89.9685 91.8979 89.3451C91.8979 88.7218 91.432 88.2167 90.8574 88.2167Z" fill="black"/>
<path id="Vector_21" d="M52.8457 88.2167C52.2711 88.2167 51.8052 88.7218 51.8052 89.3451C51.8052 89.9685 52.2711 90.4736 52.8457 90.4736H84.0936C84.6684 90.4736 85.1341 89.9685 85.1341 89.3451C85.1341 88.7218 84.6684 88.2167 84.0936 88.2167H52.8457Z" fill="black"/>
<path id="Vector_22" d="M90.8572 94.8331H46.6021C46.0274 94.8331 45.5615 95.3382 45.5615 95.9616C45.5615 96.585 46.0274 97.0901 46.6021 97.0901H90.8571C91.4319 97.0901 91.8976 96.585 91.8976 95.9616C91.8976 95.3382 91.4319 94.8331 90.8572 94.8331Z" fill="black"/>
<path id="Vector_23" d="M95.5749 29H41.4254C39.333 29 37.6309 30.846 37.6309 33.1152V78.8737C37.6309 79.4971 38.0967 80.0022 38.6714 80.0022C39.2461 80.0022 39.7119 79.4971 39.7119 78.8737V37.7691H97.2883V104.872C97.2883 105.495 97.7541 106 98.3289 106C98.9037 106 99.3694 105.495 99.3694 104.872V33.1152C99.3694 30.846 97.6672 29 95.5749 29V29ZM39.7121 35.5122V33.1152C39.7121 32.0905 40.4807 31.2569 41.4255 31.2569H95.5749C96.5199 31.2569 97.2885 32.0905 97.2885 33.1152V35.5123H39.7121V35.5122Z" fill="black"/>
<path id="Vector_24" d="M38.6714 82.5544C38.0967 82.5544 37.6309 83.0595 37.6309 83.6829V104.872C37.6309 105.495 38.0967 106 38.6714 106C39.2461 106 39.7119 105.495 39.7119 104.872V83.6829C39.7119 83.0595 39.2461 82.5544 38.6714 82.5544Z" fill="black"/>
</g>
</g>
</g>
</g>
</g>
<defs>
<clipPath id="clip0">
<rect x="33" y="29" width="71" height="77" rx="10" fill="white"/>
</clipPath>
</defs>
</svg>
