<svg width="112" height="100" viewBox="0 0 112 100" fill="none" xmlns="http://www.w3.org/2000/svg">
<g id="data-storage 1">
<path id="Vector" d="M49.5 100C76.8381 100 99 77.8381 99 50.5C99 23.1619 76.8381 1 49.5 1C22.1619 1 0 23.1619 0 50.5C0 77.8381 22.1619 100 49.5 100Z" fill="#FF6584"/>
<g id="Group">
<g id="Group_2">
<g id="Group_3">
<path id="Vector_2" d="M98.4598 52.8047C97.7841 52.8047 97.2907 52.1347 97.4202 51.418C97.853 49.0258 97.9201 46.4969 97.5442 43.8987C96.1553 34.3033 88.8878 26.811 79.9528 25.7645C72.1008 24.8449 65.0043 28.9134 61.0341 35.3912C60.5919 36.1127 59.778 36.459 59.0112 36.2092C57.5581 35.7358 56.0205 35.4792 54.4293 35.4792C46.1641 35.4792 39.3074 42.3292 38.4805 51.0352C38.385 52.0397 37.6056 52.8045 36.6713 52.8045H35.5405C28.5107 52.8045 22.5127 58.599 22.0317 66.1781C21.5019 74.5293 27.6791 81.549 35.2995 81.549H98.7004C106.321 81.549 112.498 74.5295 111.968 66.1781C111.488 58.5992 105.49 52.8047 98.4598 52.8047V52.8047Z" fill="#8AC9FE"/>
</g>
</g>
<path id="Vector_3" d="M79.9528 25.7645C72.1008 24.8449 65.0043 28.9134 61.0341 35.3912C60.5918 36.1127 59.778 36.459 59.0112 36.2092C57.558 35.7358 56.0205 35.4792 54.4293 35.4792C46.164 35.4792 39.3073 42.3292 38.4804 51.0352C38.385 52.0397 37.6056 52.8047 36.6713 52.8047H35.5405C28.5106 52.8047 22.5126 58.5992 22.0317 66.1783C21.7406 70.7662 23.4764 74.9491 26.3612 77.7901C25.8521 76.0985 25.6238 74.2732 25.744 72.378C26.2248 64.7988 32.2228 59.0044 39.2528 59.0044H40.3835C41.3179 59.0044 42.0973 58.2394 42.1926 57.2349C42.5888 53.0636 44.3716 49.3212 47.0278 46.5514V44.6861C47.0278 43.4226 47.9037 42.3613 49.0653 42.2174L65.7083 40.1565C69.8033 34.5242 76.4106 31.1143 83.6651 31.964C88.5843 32.5401 92.9952 35.0728 96.201 38.8319C93.4166 31.7596 87.2398 26.618 79.9528 25.7645V25.7645Z" fill="#60B7FF"/>
<g id="Group_4">
<g id="Group_5">
<g id="Group_6">
<path id="Vector_4" d="M76.2452 38.4226H78.7782C78.8132 38.4226 78.8471 38.427 78.8819 38.4283V32.0239C78.8819 19.3284 69.3241 9 57.5761 9C45.8281 9 36.2705 19.3286 36.2705 32.0239V38.4283C36.3051 38.427 36.3391 38.4226 36.374 38.4226H38.9072V32.0237C38.9072 20.8994 47.2822 11.8492 57.5761 11.8492C67.8702 11.8492 76.2452 20.8996 76.2452 32.0237V38.4226Z" fill="#5A5A5A"/>
<g id="Group_7">
<path id="Vector_5" d="M40.9719 58.0221H36.3746C34.5789 58.0221 33.123 56.4488 33.123 54.5082V41.7468C33.123 39.8062 34.5789 38.233 36.3746 38.233H40.9719C41.5704 38.233 42.0557 38.7574 42.0557 39.4043V56.851C42.0557 57.4976 41.5706 58.0221 40.9719 58.0221Z" fill="#9C9C9C"/>
</g>
<path id="Vector_6" d="M36.6387 54.5079V41.7465C36.6387 39.8059 38.0945 38.2325 39.8903 38.2325H36.3747C34.5789 38.2325 33.123 39.8057 33.123 41.7465V54.5079C33.123 56.4487 34.5789 58.0219 36.3747 58.0219H39.8903C38.0945 58.0219 36.6387 56.4487 36.6387 54.5079Z" fill="#838383"/>
<g id="Group_8">
<path id="Vector_7" d="M78.7787 58.022H74.1815C73.583 58.022 73.0977 57.4975 73.0977 56.8507V39.4039C73.0977 38.7571 73.583 38.2327 74.1815 38.2327H78.7787C80.5745 38.2327 82.0304 39.8059 82.0304 41.7465V54.5079C82.0304 56.4487 80.5745 58.022 78.7787 58.022V58.022Z" fill="#9C9C9C"/>
</g>
<path id="Vector_8" d="M76.6133 56.8505V39.4039C76.6133 38.757 77.0986 38.2327 77.6972 38.2327H74.1815C73.583 38.2327 73.0977 38.7571 73.0977 39.4039V56.8505C73.0977 57.4975 73.583 58.0218 74.1815 58.0218H77.6972C77.0986 58.022 76.6133 57.4975 76.6133 56.8505Z" fill="#838383"/>
</g>
</g>
</g>
<g id="Group_9">
<path id="Vector_9" d="M99.1789 75.625H93.4129C92.9128 75.625 92.5075 75.187 92.5075 74.6465V62.2139C92.5075 61.6735 92.1021 61.2355 91.602 61.2355H84.8457C84.3456 61.2355 83.9403 61.6735 83.9403 62.2139V74.6465C83.9403 75.187 83.5349 75.625 83.0348 75.625H77.269C76.4864 75.625 76.0724 76.6253 76.5942 77.2558L87.549 90.4921C87.909 90.9269 88.5389 90.9269 88.8989 90.4921L99.8538 77.2558C100.375 76.6253 99.9615 75.625 99.1789 75.625V75.625Z" fill="#00C285"/>
</g>
<g id="Group_10">
<g id="Group_11">
<path id="Vector_10" d="M80.6125 79.6755H86.5534C87.0686 79.6755 87.4863 79.2242 87.4863 78.6674V65.8574C87.4863 65.3006 87.9039 64.8493 88.4191 64.8493H92.5073V62.2142C92.5073 61.6738 92.1019 61.2357 91.6018 61.2357H84.8455C84.3454 61.2357 83.9401 61.6738 83.9401 62.2142V74.6468C83.9401 75.1872 83.5347 75.6252 83.0346 75.6252H77.269C76.4864 75.6252 76.0724 76.6256 76.5942 77.256L79.75 81.0691C79.5062 80.4414 79.9175 79.6755 80.6125 79.6755V79.6755Z" fill="#07B27B"/>
</g>
</g>
<g id="Group_12">
<path id="Vector_11" d="M77.5947 54.1476C76.8696 54.1476 76.2764 53.5065 76.2764 52.723C76.2764 51.9394 76.8696 51.2983 77.5947 51.2983C78.3198 51.2983 78.9131 51.9394 78.9131 52.723C78.9131 53.5065 78.3198 54.1476 77.5947 54.1476Z" fill="#6CF5C2"/>
</g>
<g id="Group_13">
<path id="Vector_12" d="M67.7294 40.7427C67.2407 40.2718 66.5868 40.048 65.9369 40.1284L49.0638 42.2177C47.9023 42.3617 47.0264 43.423 47.0264 44.6864V60.9275C48.508 61.9907 49.4873 63.8095 49.4873 65.8713C49.4873 66.0092 49.4813 66.1456 49.4727 66.2812C49.5928 66.0666 49.6631 65.8157 49.6631 65.5467V50.0822L65.8614 48.1364V58.7751C67.343 59.8382 68.3223 61.6571 68.3223 63.7189C68.3223 63.8148 68.3198 63.91 68.3156 64.0048C68.4309 63.7932 68.4981 63.5474 68.4981 63.2841V42.5969C68.4981 41.8893 68.2181 41.2136 67.7294 40.7427V40.7427Z" fill="#D8ECFE"/>
<path id="Vector_13" d="M49.0638 42.2175C47.9023 42.3615 47.0264 43.4227 47.0264 44.6862V60.7015C48.5567 61.752 49.5907 63.5724 49.658 65.6549C49.6604 65.619 49.6631 65.5829 49.6631 65.5462V50.0817L52.2998 49.7651V42.7866C52.2998 42.434 52.3701 42.0984 52.4937 41.7929L49.0638 42.2175Z" fill="#C4E2FF"/>
<g id="Group_14">
<path id="Vector_14" d="M43.9994 71.9925C40.8759 71.9925 38.335 69.2465 38.335 65.8711C38.335 62.4957 40.8761 59.7499 43.9994 59.7499C47.1226 59.7499 49.6637 62.4959 49.6637 65.8711C49.6637 69.2463 47.1228 71.9925 43.9994 71.9925Z" fill="white"/>
</g>
<path id="Vector_15" d="M41.8506 65.8711C41.8506 63.1589 43.4919 60.8543 45.7572 60.0531C45.2035 59.8572 44.6128 59.7499 43.9993 59.7499C40.8759 59.7499 38.335 62.4959 38.335 65.8711C38.335 69.2463 40.8761 71.9925 43.9993 71.9925C44.6128 71.9925 45.2035 71.8852 45.7572 71.6893C43.492 70.8879 41.8506 68.5833 41.8506 65.8711Z" fill="#EAF6FF"/>
<g id="Group_15">
<path id="Vector_16" d="M62.8353 69.84C59.7118 69.84 57.1709 67.0939 57.1709 63.7186C57.1709 60.3432 59.712 57.5974 62.8353 57.5974C65.9586 57.5974 68.4999 60.3434 68.4999 63.7186C68.4999 67.0938 65.9586 69.84 62.8353 69.84Z" fill="white"/>
</g>
<path id="Vector_17" d="M60.6865 63.7186C60.6865 61.0063 62.3278 58.7018 64.5931 57.9005C64.0394 57.7047 63.4488 57.5974 62.8353 57.5974C59.7118 57.5974 57.1709 60.3434 57.1709 63.7186C57.1709 67.0938 59.712 69.84 62.8353 69.84C63.4488 69.84 64.0394 69.7327 64.5931 69.5368C62.3278 68.7354 60.6865 66.4308 60.6865 63.7186Z" fill="#EAF6FF"/>
</g>
</g>
</g>
</svg>
