<svg width="80" height="83" viewBox="0 0 80 83" fill="none" xmlns="http://www.w3.org/2000/svg">
<g id="Group 15">
<path id="Vector" d="M29.5 83C45.7924 83 59 69.3447 59 52.5C59 35.6553 45.7924 22 29.5 22C13.2076 22 0 35.6553 0 52.5C0 69.3447 13.2076 83 29.5 83Z" fill="#FF6584"/>
<g id="tick (1) 1" clip-path="url(#clip0)">
<g id="Group">
<g id="Group_2">
<path id="Vector_2" d="M79.2477 10.8215C78.2194 9.51845 76.5229 9.48232 75.4582 10.7408C75.4359 10.7671 75.4139 10.794 75.3922 10.8215L31.7271 64.2626L17.5418 46.9016C16.4771 45.6431 14.7806 45.6793 13.7523 46.9823C12.7492 48.2534 12.7492 50.2685 13.7523 51.5396L29.8323 71.2196C30.8789 72.5002 32.5753 72.5002 33.6218 71.2196L79.1817 15.4595C80.2464 14.2009 80.2759 12.1245 79.2477 10.8215Z" fill="black"/>
</g>
</g>
</g>
</g>
<defs>
<clipPath id="clip0">
<rect width="67" height="82" fill="white" transform="translate(13)"/>
</clipPath>
</defs>
</svg>
