<svg width="624" height="572" viewBox="0 0 624 572" fill="none" xmlns="http://www.w3.org/2000/svg">
<path d="M143.682 395.857L191.994 305.219L83.7975 223.139L27.9219 327.967L117.414 395.857H143.682Z" fill="#F0F0F0"/>
<path d="M212.145 424.133H92.4736V395.394H212.145V424.133ZM94.0278 422.279H210.591V397.248H94.0278V422.279Z" fill="#3F3D56"/>
<path d="M197.38 419.034C201.672 419.034 205.151 414.883 205.151 409.763C205.151 404.643 201.672 400.493 197.38 400.493C193.089 400.493 189.609 404.643 189.609 409.763C189.609 414.883 193.089 419.034 197.38 419.034Z" fill="#6C63FF"/>
<path d="M175.621 419.034C179.913 419.034 183.392 414.883 183.392 409.763C183.392 404.643 179.913 400.493 175.621 400.493C171.33 400.493 167.851 404.643 167.851 409.763C167.851 414.883 171.33 419.034 175.621 419.034Z" fill="#6C63FF"/>
<path d="M153.863 419.034C158.154 419.034 161.634 414.883 161.634 409.763C161.634 404.643 158.154 400.493 153.863 400.493C149.571 400.493 146.092 404.643 146.092 409.763C146.092 414.883 149.571 419.034 153.863 419.034Z" fill="#6C63FF"/>
<path d="M132.105 419.034C136.397 419.034 139.876 414.883 139.876 409.763C139.876 404.643 136.397 400.493 132.105 400.493C127.813 400.493 124.334 404.643 124.334 409.763C124.334 414.883 127.813 419.034 132.105 419.034Z" fill="#6C63FF"/>
<path d="M110.346 419.034C114.638 419.034 118.117 414.883 118.117 409.763C118.117 404.643 114.638 400.493 110.346 400.493C106.054 400.493 102.575 404.643 102.575 409.763C102.575 414.883 106.054 419.034 110.346 419.034Z" fill="#6C63FF"/>
<path d="M316.275 234.548H296.07V210.444H316.275V234.548ZM297.624 232.694H314.72V212.298H297.624V232.694Z" fill="#3F3D56"/>
<path d="M225.357 252.78L228.825 255.008L240.623 262.593L259.669 274.836L270.769 250.268C271.814 247.959 272.468 245.427 272.692 242.817C272.916 240.207 272.707 237.57 272.076 235.056C271.444 232.543 270.404 230.203 269.014 228.169C267.624 226.136 265.911 224.45 263.974 223.207C259.834 220.541 255.092 219.51 250.43 220.265C245.769 221.02 241.428 223.52 238.034 227.406L238.028 227.413C236.358 229.327 234.949 231.54 233.851 233.972L225.357 252.78Z" fill="#2F2E41"/>
<path d="M277.342 503.339L275.016 533.875L266.289 535.263L260.472 500.562L277.342 503.339Z" fill="#FFB8B8"/>
<path d="M263.962 535.264C263.962 535.264 275.015 528.323 277.342 533.876C277.342 533.876 275.597 550.532 282.578 552.614C289.559 554.696 292.468 569.271 282.578 570.659C272.688 572.047 266.289 567.883 262.798 567.883C259.308 567.883 262.798 553.308 262.798 553.308L263.962 535.264Z" fill="#2F2E41"/>
<path d="M206.95 503.339L209.278 533.875L218.003 535.263L223.821 500.562L206.95 503.339Z" fill="#FFB8B8"/>
<path d="M220.331 535.264C220.331 535.264 209.277 528.323 206.95 533.876C206.95 533.876 208.696 550.532 201.715 552.614C194.734 554.696 191.825 569.271 201.715 570.659C211.604 572.047 218.004 567.883 221.494 567.883C224.985 567.883 221.494 553.308 221.494 553.308L220.331 535.264Z" fill="#2F2E41"/>
<path d="M254.654 258.346C263.007 258.346 269.779 250.267 269.779 240.301C269.779 230.335 263.007 222.257 254.654 222.257C246.3 222.257 239.528 230.335 239.528 240.301C239.528 250.267 246.3 258.346 254.654 258.346Z" fill="#FFB8B8"/>
<path d="M206.368 275.697L218.585 298.6L233.129 297.212L256.98 299.294C256.98 299.294 259.232 293.922 261.07 288.696C262.076 286.086 262.851 283.358 263.38 280.555C263.961 275.697 255.817 270.839 255.817 270.839C255.817 270.839 255.497 270.769 254.962 270.617C254.252 270.415 253.158 270.082 251.96 269.596C249.255 268.5 246.003 266.64 245.345 263.898C244.182 259.04 252.908 252.1 252.908 252.1L242.437 240.301C242.437 240.301 233.134 255.716 221.837 259.227C221.182 259.434 220.518 259.596 219.847 259.713C219.812 259.72 219.783 259.727 219.748 259.734C207.532 261.816 206.368 275.697 206.368 275.697Z" fill="#FFB8B8"/>
<path d="M212.768 269.451L206.369 275.697C206.369 275.697 201.133 305.54 202.878 313.868C204.623 322.197 202.296 329.831 202.296 331.219C202.296 332.607 197.061 384.659 197.061 384.659C197.061 384.659 186.589 412.421 197.642 409.644C208.695 406.868 204.623 379.107 204.623 379.107L218.003 330.525V289.577L212.768 269.451Z" fill="#FFB8B8"/>
<path d="M258.726 275.003L263.38 279.167L265.707 337.465L283.16 387.435C283.16 387.435 295.958 411.726 287.814 412.42C279.669 413.115 274.434 387.435 274.434 387.435L258.726 339.547L256.399 293.047L258.726 275.003Z" fill="#FFB8B8"/>
<path d="M229.639 279.167C229.639 279.167 241.274 288.883 259.89 285.413C259.89 285.413 265.126 297.906 262.217 304.846C259.308 311.786 265.707 328.443 266.871 330.525C268.034 332.607 281.415 375.637 286.069 422.137C290.723 468.637 303.521 500.562 292.468 504.726C281.415 508.89 258.726 513.749 256.399 509.584C254.072 505.42 250.582 402.01 250.582 402.01L244.183 441.57C244.183 441.57 252.909 508.89 246.51 510.279C240.11 511.667 199.97 507.502 201.133 499.174C202.297 490.846 213.932 447.122 213.932 447.122C213.932 447.122 213.35 359.674 224.985 343.018C224.985 343.018 229.639 333.995 223.24 322.197C216.84 310.398 217.422 291.659 217.422 291.659C217.422 291.659 222.076 291.659 229.639 279.167Z" fill="#2F2E41"/>
<path d="M219.848 259.713L229.639 285.413L231.966 284.025L221.837 259.227L219.848 259.713Z" fill="#2F2E41"/>
<path d="M251.96 269.596L259.307 288.883L261.07 288.696L260.471 285.413L254.962 270.616C254.252 270.415 253.158 270.082 251.96 269.596Z" fill="#2F2E41"/>
<path d="M228.824 255.008C229.383 257.155 230.461 259.057 231.923 260.477C233.385 261.896 235.165 262.769 237.041 262.987C238.916 263.205 240.804 262.758 242.468 261.701C244.131 260.645 245.497 259.026 246.393 257.048C239.034 245.569 245.346 238.358 257.301 232.903C258.201 230.909 258.584 228.641 258.401 226.386C258.217 224.132 257.476 221.994 256.271 220.244C252.976 219.741 249.628 220.123 246.472 221.362C243.317 222.602 240.434 224.667 238.033 227.406L238.027 227.413L229.534 246.208C228.929 247.543 228.554 249.011 228.432 250.522C228.311 252.033 228.444 253.559 228.824 255.008V255.008Z" fill="#2F2E41"/>
<path d="M245.637 246.548C246.761 246.548 247.673 244.683 247.673 242.383C247.673 240.084 246.761 238.219 245.637 238.219C244.512 238.219 243.601 240.084 243.601 242.383C243.601 244.683 244.512 246.548 245.637 246.548Z" fill="#FFB8B8"/>
<path d="M251.704 235.589L269.191 245.041L272.397 236.602C271.845 233.518 270.688 230.633 269.023 228.184L256.986 221.68L251.704 235.589Z" fill="#2F2E41"/>
<path d="M293.739 421.815C298.03 421.815 301.509 417.665 301.509 412.545C301.509 407.425 298.03 403.274 293.739 403.274C289.447 403.274 285.968 407.425 285.968 412.545C285.968 417.665 289.447 421.815 293.739 421.815Z" fill="#6C63FF"/>
<path d="M44.2602 476.926C47.065 476.926 49.3387 474.214 49.3387 470.868C49.3387 467.521 47.065 464.809 44.2602 464.809C41.4554 464.809 39.1816 467.521 39.1816 470.868C39.1816 474.214 41.4554 476.926 44.2602 476.926Z" fill="#FF6584"/>
<path d="M69.9184 502.445H68.3643V571.429H69.9184V502.445Z" fill="#3F3D56"/>
<path d="M69.142 512.2C73.6581 512.2 77.3191 507.832 77.3191 502.444C77.3191 497.057 73.6581 492.689 69.142 492.689C64.6259 492.689 60.9648 497.057 60.9648 502.444C60.9648 507.832 64.6259 512.2 69.142 512.2Z" fill="#3F3D56"/>
<path d="M69.1419 544.961C69.1419 544.961 67.9737 514.987 44.0264 518.471Z" fill="#3F3D56"/>
</svg>
