<svg width="871" height="760" viewBox="0 0 871 760" fill="none" xmlns="http://www.w3.org/2000/svg">
<path d="M200.556 525.964L267.991 405.536L116.967 296.479L38.9736 435.761L163.89 525.964H200.556Z" fill="#F0F0F0"/>
<path d="M296.118 563.533H129.077V525.348H296.118V563.533ZM131.247 561.07H293.949V527.812H131.247V561.07Z" fill="#3F3D56"/>
<path d="M275.509 556.758C281.499 556.758 286.356 551.244 286.356 544.441C286.356 537.638 281.499 532.123 275.509 532.123C269.518 532.123 264.662 537.638 264.662 544.441C264.662 551.244 269.518 556.758 275.509 556.758Z" fill="#6C63FF"/>
<path d="M245.138 556.758C251.128 556.758 255.985 551.244 255.985 544.441C255.985 537.638 251.128 532.123 245.138 532.123C239.147 532.123 234.291 537.638 234.291 544.441C234.291 551.244 239.147 556.758 245.138 556.758Z" fill="#6C63FF"/>
<path d="M214.767 556.758C220.757 556.758 225.614 551.244 225.614 544.441C225.614 537.638 220.757 532.123 214.767 532.123C208.776 532.123 203.92 537.638 203.92 544.441C203.92 551.244 208.776 556.758 214.767 556.758Z" fill="#6C63FF"/>
<path d="M184.396 556.758C190.386 556.758 195.242 551.244 195.242 544.441C195.242 537.638 190.386 532.123 184.396 532.123C178.405 532.123 173.549 537.638 173.549 544.441C173.549 551.244 178.405 556.758 184.396 556.758Z" fill="#6C63FF"/>
<path d="M154.025 556.758C160.015 556.758 164.871 551.244 164.871 544.441C164.871 537.638 160.015 532.123 154.025 532.123C148.034 532.123 143.178 537.638 143.178 544.441C143.178 551.244 148.034 556.758 154.025 556.758Z" fill="#6C63FF"/>
<path d="M843.883 757.536H0V760H843.883V757.536Z" fill="#3F3D56"/>
<path d="M441.465 311.637H413.264V279.611H441.465V311.637ZM415.433 309.173H439.296V282.075H415.433V309.173Z" fill="#3F3D56"/>
<path d="M314.561 335.861L319.4 338.822L335.868 348.9L362.454 365.167L377.947 332.523C379.406 329.456 380.319 326.092 380.632 322.624C380.945 319.156 380.652 315.652 379.771 312.313C378.89 308.973 377.438 305.864 375.498 303.162C373.557 300.461 371.167 298.22 368.463 296.569C362.685 293.026 356.065 291.657 349.558 292.66C343.051 293.662 336.992 296.985 332.254 302.148L332.246 302.157C329.915 304.7 327.948 307.64 326.416 310.872L314.561 335.861Z" fill="#2F2E41"/>
<path d="M387.124 668.772L383.876 709.345L371.695 711.189L363.575 665.083L387.124 668.772Z" fill="#FFB8B8"/>
<path d="M368.447 711.189C368.447 711.189 383.875 701.968 387.123 709.345C387.123 709.345 384.687 731.476 394.431 734.243C404.176 737.009 408.236 756.374 394.431 758.218C380.627 760.063 371.695 754.53 366.823 754.53C361.95 754.53 366.823 735.165 366.823 735.165L368.447 711.189Z" fill="#2F2E41"/>
<path d="M288.868 668.772L292.117 709.345L304.297 711.189L312.417 665.083L288.868 668.772Z" fill="#FFB8B8"/>
<path d="M307.545 711.189C307.545 711.189 292.117 701.968 288.869 709.345C288.869 709.345 291.305 731.476 281.56 734.243C271.816 737.009 267.756 756.374 281.56 758.218C295.365 760.063 304.297 754.53 309.169 754.53C314.041 754.53 309.169 735.165 309.169 735.165L307.545 711.189Z" fill="#2F2E41"/>
<path d="M355.454 343.257C367.115 343.257 376.567 332.523 376.567 319.281C376.567 306.04 367.115 295.306 355.454 295.306C343.794 295.306 334.342 306.04 334.342 319.281C334.342 332.523 343.794 343.257 355.454 343.257Z" fill="#FFB8B8"/>
<path d="M288.057 366.31L305.109 396.741L325.41 394.897L358.703 397.663C358.703 397.663 361.845 390.526 364.411 383.582C365.816 380.115 366.897 376.489 367.635 372.765C368.447 366.31 357.079 359.856 357.079 359.856C357.079 359.856 356.632 359.763 355.885 359.56C354.894 359.293 353.368 358.85 351.695 358.205C347.919 356.748 343.38 354.277 342.462 350.634C340.838 344.179 353.019 334.958 353.019 334.958L338.402 319.281C338.402 319.281 325.418 339.762 309.648 344.428C308.734 344.702 307.807 344.918 306.871 345.074C306.822 345.083 306.782 345.092 306.733 345.101C289.681 347.868 288.057 366.31 288.057 366.31Z" fill="#FFB8B8"/>
<path d="M296.989 358.011L288.056 366.31C288.056 366.31 280.748 405.962 283.184 417.028C285.62 428.094 282.372 438.237 282.372 440.081C282.372 441.926 275.064 511.086 275.064 511.086C275.064 511.086 260.447 547.971 275.876 544.283C291.304 540.594 285.62 503.709 285.62 503.709L304.297 439.159V384.753L296.989 358.011Z" fill="#FFB8B8"/>
<path d="M361.139 365.388L367.635 370.921L370.883 448.381L395.244 514.774C395.244 514.774 413.108 547.049 401.74 547.971C390.371 548.893 383.063 514.774 383.063 514.774L361.139 451.147L357.891 389.364L361.139 365.388Z" fill="#FFB8B8"/>
<path d="M320.537 370.921C320.537 370.921 336.777 383.831 362.762 379.22C362.762 379.22 370.07 395.819 366.01 405.04C361.95 414.261 370.882 436.393 372.506 439.159C374.13 441.926 392.807 499.098 399.303 560.881C405.799 622.664 423.664 665.082 408.235 670.615C392.807 676.148 361.138 682.603 357.89 677.07C354.642 671.537 349.77 534.139 349.77 534.139L340.837 586.701C340.837 586.701 353.018 676.148 344.085 677.992C335.153 679.837 279.123 674.304 280.747 663.238C282.372 652.173 298.612 594.078 298.612 594.078C298.612 594.078 297.8 477.889 314.041 455.758C314.041 455.758 320.537 443.77 311.605 428.093C302.672 412.417 303.484 387.52 303.484 387.52C303.484 387.52 309.98 387.52 320.537 370.921Z" fill="#2F2E41"/>
<path d="M306.871 345.073L320.538 379.22L323.786 377.376L309.648 344.428L306.871 345.073Z" fill="#2F2E41"/>
<path d="M351.694 358.205L361.95 383.831L364.411 383.582L363.574 379.22L355.884 359.56C354.894 359.293 353.367 358.85 351.694 358.205Z" fill="#2F2E41"/>
<path d="M319.401 338.822C320.181 341.674 321.686 344.202 323.726 346.088C325.766 347.974 328.251 349.134 330.869 349.423C333.488 349.713 336.123 349.119 338.445 347.715C340.767 346.311 342.673 344.161 343.924 341.533C333.652 326.28 342.462 316.7 359.149 309.451C360.406 306.802 360.941 303.788 360.685 300.793C360.429 297.798 359.394 294.957 357.712 292.632C353.112 291.964 348.439 292.471 344.035 294.118C339.63 295.764 335.606 298.508 332.255 302.148L332.247 302.157L320.391 327.129C319.547 328.904 319.024 330.853 318.854 332.861C318.684 334.87 318.87 336.896 319.401 338.822V338.822Z" fill="#2F2E41"/>
<path d="M342.867 327.581C344.437 327.581 345.71 325.104 345.71 322.048C345.71 318.992 344.437 316.515 342.867 316.515C341.298 316.515 340.025 318.992 340.025 322.048C340.025 325.104 341.298 327.581 342.867 327.581Z" fill="#FFB8B8"/>
<path d="M351.337 313.02L375.746 325.58L380.221 314.366C379.45 310.268 377.836 306.435 375.511 303.181L358.71 294.54L351.337 313.02Z" fill="#2F2E41"/>
<path d="M410.01 560.454C416 560.454 420.857 554.939 420.857 548.136C420.857 541.333 416 535.818 410.01 535.818C404.019 535.818 399.163 541.333 399.163 548.136C399.163 554.939 404.019 560.454 410.01 560.454Z" fill="#6C63FF"/>
<path d="M61.7792 633.678C65.6943 633.678 68.868 630.074 68.868 625.628C68.868 621.182 65.6943 617.578 61.7792 617.578C57.8642 617.578 54.6904 621.182 54.6904 625.628C54.6904 630.074 57.8642 633.678 61.7792 633.678Z" fill="#FF6584"/>
<path d="M97.5942 667.584H95.4248V759.241H97.5942V667.584Z" fill="#3F3D56"/>
<path d="M96.5096 680.545C102.813 680.545 107.924 674.742 107.924 667.584C107.924 660.425 102.813 654.622 96.5096 654.622C90.2059 654.622 85.0957 660.425 85.0957 667.584C85.0957 674.742 90.2059 680.545 96.5096 680.545Z" fill="#3F3D56"/>
<path d="M96.5102 724.074C96.5102 724.074 94.8796 684.248 61.4531 688.878Z" fill="#3F3D56"/>
</svg>
